<?xml version="1.0" encoding="UTF-8"?>
<svg version="1.1" xmlns="http://www.w3.org/2000/svg" width="1536" height="428">
<path d="M0 0 C506.88 0 1013.76 0 1536 0 C1536 141.24 1536 282.48 1536 428 C1029.12 428 522.24 428 0 428 C0 286.76 0 145.52 0 0 Z " fill="#151517" transform="translate(0,0)"/>
<path d="M0 0 C33 0 66 0 100 0 C100 18.81 100 37.62 100 57 C92.18072976 53.8722919 92.18072976 53.8722919 89 51 C88.16815027 47.87518455 88.29997613 44.85480642 88.4140625 41.640625 C88.42010498 40.83866699 88.42614746 40.03670898 88.43237305 39.21044922 C88.46369696 36.22310695 88.54746718 33.23650024 88.625 30.25 C88.74875 23.5675 88.8725 16.885 89 10 C62.93 10 36.86 10 10 10 C10 21.88 10 33.76 10 46 C11.65 46.66 13.3 47.32 15 48 C16.62564869 48.87837877 18.23315759 49.79089051 19.82421875 50.73046875 C20.7570166 51.27840088 21.68981445 51.82633301 22.65087891 52.39086914 C23.65296387 52.98375732 24.65504883 53.57664551 25.6875 54.1875 C27.85509605 55.46157179 30.02307816 56.73498696 32.19140625 58.0078125 C33.31305176 58.6668457 34.43469727 59.32587891 35.59033203 60.00488281 C41.0850445 63.2200332 46.6057847 66.38966367 52.125 69.5625 C64.72658696 76.81753077 77.31826186 84.10429106 89.73828125 91.66748047 C90.62902344 92.20904785 91.51976562 92.75061523 92.4375 93.30859375 C93.24058594 93.80029053 94.04367187 94.2919873 94.87109375 94.79858398 C97.07248893 96.13019275 97.07248893 96.13019275 100 97 C100 125.71 100 154.42 100 184 C95.41250284 182.47083428 91.68428915 180.93270727 87.4375 178.75 C79.86013599 174.90014444 72.22053976 171.18632349 64.5625 167.5 C63.32516744 166.90386643 62.08786313 166.30767424 60.85058594 165.71142578 C58.9231338 164.7826052 56.99566947 163.85381011 55.06811523 162.92520142 C47.97772705 159.50883042 40.89187456 156.08311752 33.80856323 152.65209961 C32.42393311 151.98160896 31.03911485 151.31150664 29.65408325 150.6418457 C28.99874603 150.32497803 28.34340881 150.00811035 27.66821289 149.68164062 C26.81713707 149.27032898 26.81713707 149.27032898 25.9488678 148.85070801 C17.26178226 144.63398334 8.63966435 140.31983218 0 136 C0 118.84 0 101.68 0 84 C6 86 6 86 10 88 C10 101.86 10 115.72 10 130 C11.98 130.66 13.96 131.32 16 132 C17.69265125 132.77538158 19.3689054 133.58750445 21.02734375 134.43359375 C22.44454712 135.15095703 22.44454712 135.15095703 23.89038086 135.8828125 C24.89593018 136.39585937 25.90147949 136.90890625 26.9375 137.4375 C38.8789524 143.46954594 50.91738767 149.25259522 63 155 C71.25 158.96 79.5 162.92 88 167 C88.33 145.88 88.66 124.76 89 103 C87.35 102.34 85.7 101.68 84 101 C81.83286704 99.81079575 79.68612263 98.58409206 77.5546875 97.33203125 C76.94416534 96.9741301 76.33364319 96.61622894 75.70462036 96.2474823 C74.41441268 95.4901284 73.12519484 94.73108599 71.83691406 93.97045898 C69.90409723 92.82967374 67.9679812 91.69467097 66.03125 90.56054688 C59.39135641 86.66100798 52.8276622 82.68170629 46.37768555 78.47167969 C43.17142673 76.48715067 39.82773404 74.86870711 36.4375 73.2265625 C33.17650504 71.58561311 30.09016416 69.71135032 26.9765625 67.80859375 C23.11056726 65.4595704 19.2125099 63.16697481 15.3125 60.875 C14.24310181 60.24525269 14.24310181 60.24525269 13.15209961 59.6027832 C12.45866455 59.19503662 11.76522949 58.78729004 11.05078125 58.3671875 C10.43887939 58.00737793 9.82697754 57.64756836 9.1965332 57.27685547 C6.14098618 55.50065108 3.06863089 53.75350337 0 52 C0 34.84 0 17.68 0 0 Z " fill="#E9E9E9" transform="translate(622,155)"/>
<path d="M0 0 C3.3 0 6.6 0 10 0 C10.33 18.81 10.66 37.62 11 57 C14.81504541 52.63994811 18.6211434 48.28808966 22.37426758 43.87744141 C27.4028315 37.96881478 32.52219666 32.16856336 37.765625 26.44921875 C40.29155736 23.68040828 42.7572921 20.86453605 45.21484375 18.03515625 C48.0853981 14.76259867 51.00999703 11.54031206 53.96484375 8.34375 C55.65810659 6.39373521 56.86878085 4.5676938 58.1875 2.375 C62.98752611 -1.67835538 68.98176217 -0.43976298 75 0 C72.01002257 4.2584527 68.93149812 8.18854992 65.1875 11.8125 C61.13914184 15.73724417 57.67769896 20.0170213 54.15234375 24.41015625 C52.35050002 26.57825496 50.52698186 28.54791816 48.5 30.5 C44.78119858 34.09056689 41.63298785 38.07579107 38.39453125 42.09765625 C35.17386931 46.00132969 31.76771688 49.7162571 28.34375 53.44140625 C25.76288679 56.25884859 23.24481068 59.12440633 20.73828125 62.0078125 C17.51987371 65.69632451 14.25690811 69.34549531 11 73 C12.27252871 75.78611924 13.58323129 77.83196574 15.7504425 79.99095154 C16.58935028 80.83398331 16.58935028 80.83398331 17.44520569 81.69404602 C18.36238625 82.60044075 18.36238625 82.60044075 19.2980957 83.52514648 C19.94384552 84.17118835 20.58959534 84.81723022 21.25491333 85.48284912 C23.3904961 87.61703893 25.53307877 89.74405411 27.67578125 91.87109375 C29.16353766 93.35511779 30.65085145 94.83958567 32.13774109 96.32447815 C36.05560852 100.2347092 39.97943943 104.13890256 43.90454102 108.04187012 C47.88720502 112.0041423 51.86428161 115.9720136 55.84179688 119.93945312 C62.27349472 126.35357213 68.70860414 132.76424422 75.14820862 139.17042542 C76.26050429 140.27705839 77.37242127 141.38407217 78.483881 142.49154472 C79.90659285 143.90706501 81.33395744 145.31790458 82.76164246 146.72840881 C85.34862814 149.35380434 87.64096863 152.16916235 90 155 C91.65492313 156.67985606 93.32353559 158.34184094 95 160 C96.47594979 161.47457072 97.95113758 162.94990434 99.42578125 164.42578125 C100.22177734 165.22177734 101.01777344 166.01777344 101.83789062 166.83789062 C105.55859375 170.55859375 109.27929688 174.27929688 113 178 C111.50179841 181.81360406 109.19998733 183.53926661 106 186 C96.99105332 177.01427701 87.98484909 168.02581517 78.98208523 159.0338974 C74.80115611 154.85817521 70.61930674 150.68338357 66.43530273 146.51074219 C62.39361456 142.4799609 58.35441127 138.44670459 54.31688118 134.41175842 C52.78008369 132.87680115 51.24240986 131.34272073 49.703825 129.80955505 C47.54033936 127.65338348 45.38005961 125.49404621 43.22045898 123.33398438 C42.59107422 122.70819489 41.96168945 122.0824054 41.31323242 121.43765259 C36.98524851 117.09972983 33.05643806 112.63592921 29 108 C23.06 102.06 17.12 96.12 11 90 C10.67 131.25 10.34 172.5 10 215 C2 214 2 214 0 213 C0 142.71 0 72.42 0 0 Z " fill="#EAEAEA" transform="translate(741,155)"/>
<path d="M0 0 C0.88845108 -0.00087616 1.77690216 -0.00175232 2.692276 -0.00265503 C5.61493323 0.00150927 8.53526571 0.04810559 11.45751953 0.09521484 C13.48917385 0.10641112 15.52084442 0.11494927 17.55252075 0.12094116 C22.88929287 0.14380537 28.22507883 0.20270846 33.5614624 0.26916504 C39.01105408 0.33063918 44.46080575 0.35796717 49.91064453 0.38818359 C60.59597267 0.45245352 71.28057022 0.55480435 81.96533203 0.68115234 C82.5518545 10.28634218 82.99216473 19.88515268 83.26063633 29.50450802 C83.38970796 33.97528891 83.56352821 38.43361754 83.85131836 42.8972168 C84.88442259 59.3979874 85.85345525 75.82097698 74.84567261 89.28567505 C65.99312072 99.10638049 56.57625191 104.07265536 43.36216736 104.98951721 C36.02066522 105.27983168 28.73217139 104.89758552 21.40869141 104.39776611 C17.17367397 104.13730676 12.93463995 104.02689056 8.69384766 103.90185547 C0.4391619 103.63729555 -7.79204794 103.19984721 -16.03466797 102.68115234 C-16.03466797 108.95115234 -16.03466797 115.22115234 -16.03466797 121.68115234 C-23.67205332 118.6261982 -23.67205332 118.6261982 -27.03466797 115.68115234 C-27.62247757 112.6603833 -27.79918994 110.44051055 -27.71582031 107.42431641 C-27.71713455 106.17986 -27.71713455 106.17986 -27.71847534 104.91026306 C-27.71429927 102.17147233 -27.66764922 99.43513939 -27.62060547 96.69677734 C-27.60941333 94.79678689 -27.60087323 92.8967791 -27.59487915 90.99676514 C-27.57198216 85.9985972 -27.5130514 81.0014773 -27.44665527 76.00372314 C-27.38525152 70.90285419 -27.35786821 65.80181569 -27.32763672 60.70068359 C-27.26330904 50.69371298 -27.16091894 40.68751985 -27.03466797 30.68115234 C-23.40466797 30.68115234 -19.77466797 30.68115234 -16.03466797 30.68115234 C-16.03466797 51.14115234 -16.03466797 71.60115234 -16.03466797 92.68115234 C6.73533203 92.68115234 29.50533203 92.68115234 52.96533203 92.68115234 C53.95533203 90.70115234 53.95533203 90.70115234 54.96533203 88.68115234 C56.54652405 87.36485291 56.54652405 87.36485291 58.39135742 86.1496582 C64.17756507 81.83396634 69.00392782 77.50957536 70.81512451 70.29718018 C72.03825402 60.63359072 71.6630169 50.96740967 71.40283203 41.24365234 C71.25845703 31.15802734 71.11408203 21.07240234 70.96533203 10.68115234 C41.92533203 10.68115234 12.88533203 10.68115234 -17.03466797 10.68115234 C-12.93150947 2.47483534 -9.15006942 -0.23799747 0 0 Z " fill="#E7E6E6" transform="translate(836.03466796875,154.31884765625)"/>
<path d="M0 0 C3.3 1.65 6.6 3.3 10 5 C10 15.89 10 26.78 10 38 C6.7 38.66 3.4 39.32 0 40 C0 26.8 0 13.6 0 0 Z " fill="#EFEFEF" transform="translate(809,322)"/>
<path d="M0 0 C0.99 0.33 1.98 0.66 3 1 C3 14.53 3 28.06 3 42 C2.01 42 1.02 42 0 42 C-0.33 38.7 -0.66 35.4 -1 32 C-3.97 34.475 -3.97 34.475 -7 37 C-6.79375 36.0925 -6.5875 35.185 -6.375 34.25 C-5.9872755 30.88972103 -6.19588033 29.75924185 -8 27 C-9.65 27.99 -11.3 28.98 -13 30 C-13.33 29.01 -13.66 28.02 -14 27 C-13.34 27 -12.68 27 -12 27 C-11.34 25.35 -10.68 23.7 -10 22 C-10.99 21.67 -11.98 21.34 -13 21 C-13 20.34 -13 19.68 -13 19 C-13.99 19.33 -14.98 19.66 -16 20 C-15.6875 18.0625 -15.6875 18.0625 -15 16 C-13 15.33333333 -11 14.66666667 -9 14 C-8.9175 12.88625 -8.835 11.7725 -8.75 10.625 C-8.5025 9.42875 -8.255 8.2325 -8 7 C-6 5.75 -6 5.75 -4 5 C-3.67 4.01 -3.34 3.02 -3 2 C-2.01 3.485 -2.01 3.485 -1 5 C-0.67 3.35 -0.34 1.7 0 0 Z " fill="#333234" transform="translate(807,321)"/>
<path d="M0 0 C0.33 0.99 0.66 1.98 1 3 C1.66 3 2.32 3 3 3 C3 4.98 3 6.96 3 9 C3.66 9.33 4.32 9.66 5 10 C3.02 12.97 3.02 12.97 1 16 C1.99 16.99 2.98 17.98 4 19 C3.67 19.66 3.34 20.32 3 21 C1.54119891 20.85892253 0.08296449 20.71197585 -1.375 20.5625 C-2.18710937 20.48128906 -2.99921875 20.40007812 -3.8359375 20.31640625 C-6 20 -6 20 -8 19 C-8.33 19.66 -8.66 20.32 -9 21 C-9.99 21 -10.98 21 -12 21 C-12.66 22.32 -13.32 23.64 -14 25 C-14.66 25 -15.32 25 -16 25 C-15.67 22.69 -15.34 20.38 -15 18 C-16.32 17.34 -17.64 16.68 -19 16 C-17.38731308 13.28775382 -15.75098126 10.62647188 -14 8 C-14 7.01 -14 6.02 -14 5 C-12.02 4.01 -10.04 3.02 -8 2 C-7.34 3.32 -6.68 4.64 -6 6 C-6 5.34 -6 4.68 -6 4 C-4.36368108 2.95107762 -2.69514137 1.95093297 -1 1 C-0.67 0.67 -0.34 0.34 0 0 Z M1 18 C2 20 2 20 2 20 Z " fill="#272729" transform="translate(734,391)"/>
<path d="M0 0 C0.66 0 1.32 0 2 0 C4 6.625 4 6.625 4 10 C2.68 10.33 1.36 10.66 0 11 C0.33 12.98 0.66 14.96 1 17 C1.928125 17.0928125 1.928125 17.0928125 2.875 17.1875 C5 18 5 18 6.25 20.5625 C6.4975 21.366875 6.745 22.17125 7 23 C5.02 23.66 3.04 24.32 1 25 C1.33 26.65 1.66 28.3 2 30 C-0.31 30.99 -2.62 31.98 -5 33 C-5 32.34 -5 31.68 -5 31 C-4.01 31 -3.02 31 -2 31 C-2.01047363 30.16750732 -2.02094727 29.33501465 -2.03173828 28.47729492 C-2.06584442 25.38550844 -2.09091076 22.29381792 -2.10986328 19.2019043 C-2.12485495 17.20680382 -2.15026731 15.21179054 -2.17578125 13.21679688 C-2.18222656 11.96318359 -2.18867187 10.70957031 -2.1953125 9.41796875 C-2.20578613 8.26063232 -2.21625977 7.1032959 -2.22705078 5.91088867 C-2 3 -2 3 0 0 Z " fill="#29292A" transform="translate(753,339)"/>
<path d="M0 0 C-0.66 0 -1.32 0 -2 0 C-2 0.66 -2 1.32 -2 2 C-0.68 2.33 0.64 2.66 2 3 C1.34 5.31 0.68 7.62 0 10 C-0.66 10 -1.32 10 -2 10 C-2.33 10.99 -2.66 11.98 -3 13 C-3.99 12.01 -4.98 11.02 -6 10 C-6.66 10.66 -7.32 11.32 -8 12 C-10.5 11.875 -10.5 11.875 -13 11 C-14.3125 8.9375 -14.3125 8.9375 -15 7 C-14.505 6.54625 -14.01 6.0925 -13.5 5.625 C-11.77390663 4.12364481 -11.77390663 4.12364481 -12 2 C-11.443125 1.87625 -10.88625 1.7525 -10.3125 1.625 C-7.91529254 1.03879694 -7.91529254 1.03879694 -5.4375 -0.125 C-3 -1 -3 -1 0 0 Z M-3 2 C-2 4 -2 4 -2 4 Z " fill="#242426" transform="translate(622,319)"/>
<path d="M0 0 C0.99 0.495 0.99 0.495 2 1 C2 1.66 2 2.32 2 3 C2.66 3.33 3.32 3.66 4 4 C3.34 4 2.68 4 2 4 C2.165 5.19625 2.33 6.3925 2.5 7.625 C2.93970567 11.10548715 3.08780713 14.48771488 3 18 C3.928125 18.433125 3.928125 18.433125 4.875 18.875 C7 20 7 20 9 22 C8.34 22.66 7.68 23.32 7 24 C7 23.34 7 22.68 7 22 C4.9375006 23.81222534 4.9375006 23.81222534 3 26 C3 27.71878995 3.00713622 29.43768846 3.03515625 31.15625 C3.04417969 31.9296875 3.05320312 32.703125 3.0625 33.5 C3.07410156 34.2734375 3.08570313 35.046875 3.09765625 35.84375 C3 38 3 38 2 41 C2.66 41 3.32 41 4 41 C4 41.66 4 42.32 4 43 C2.68 42.67 1.36 42.34 0 42 C0 28.14 0 14.28 0 0 Z " fill="#2F2F2F" transform="translate(632,243)"/>
<path d="M0 0 C0.99 0.495 0.99 0.495 2 1 C1.01 1.495 1.01 1.495 0 2 C0 1.34 0 0.68 0 0 Z M-4 -21 C-3.67 -21 -3.34 -21 -3 -21 C-2.67 -13.41 -2.34 -5.82 -2 2 C-1.34 2 -0.68 2 0 2 C0.66 2.99 1.32 3.98 2 5 C3.32 4.01 4.64 3.02 6 2 C6.66 2.33 7.32 2.66 8 3 C7.33501617 7.38889325 5.81242323 10.9811485 4 15 C1.36 13.68 -1.28 12.36 -4 11 C-4 0.44 -4 -10.12 -4 -21 Z " fill="#454547" transform="translate(823,349)"/>
<path d="M0 0 C0.33 0.99 0.66 1.98 1 3 C1.99 3.33 2.98 3.66 4 4 C3.690625 4.5775 3.38125 5.155 3.0625 5.75 C1.91366693 7.90435397 1.91366693 7.90435397 1.6875 10.0625 C1 12 1 12 -1.4375 13.8125 C-2.283125 14.204375 -3.12875 14.59625 -4 15 C-6 14 -6 14 -7 12 C-7.99 11.34 -8.98 10.68 -10 10 C-9.8125 8.125 -9.8125 8.125 -9 6 C-7.3523962 5.28752268 -5.68236471 4.62599617 -4 4 C-1.72808584 1.97959252 -1.72808584 1.97959252 0 0 Z " fill="#29292C" transform="translate(865,334)"/>
<path d="M0 0 C0.33 0 0.66 0 1 0 C2.32286246 4.96073422 2.08893197 9.91111512 2 15 C2.66 15 3.32 15 4 15 C4 15.66 4 16.32 4 17 C4.66 17 5.32 17 6 17 C5.67 18.65 5.34 20.3 5 22 C4.34 21.67 3.68 21.34 3 21 C2.67 21.66 2.34 22.32 2 23 C2.66 23 3.32 23 4 23 C3.34 27.29 2.68 31.58 2 36 C1.34 36 0.68 36 0 36 C0 24.12 0 12.24 0 0 Z " fill="#2B2B2C" transform="translate(632,165)"/>
<path d="M0 0 C0.20395079 3.67111414 -0.23316528 5.79761207 -2 9 C-2 9.66 -2 10.32 -2 11 C-2.99 11 -3.98 11 -5 11 C-5 10.34 -5 9.68 -5 9 C-8.12197478 10.3089572 -8.12197478 10.3089572 -10 13 C-10 12.01 -10 11.02 -10 10 C-10.2475 9.401875 -10.495 8.80375 -10.75 8.1875 C-11.15768188 4.62028358 -9.1172897 2.72222961 -7 0 C-4.3333581 -1.33332095 -2.83319697 -0.67102033 0 0 Z M-5 7 C-4 9 -4 9 -4 9 Z " fill="#2A2A2C" transform="translate(653,262)"/>
<path d="M0 0 C0.66 0.33 1.32 0.66 2 1 C1.67 2.32 1.34 3.64 1 5 C1.66 5.33 2.32 5.66 3 6 C2.34 7.32 1.68 8.64 1 10 C1.66 10.33 2.32 10.66 3 11 C2.34 11 1.68 11 1 11 C1.15936035 11.70648682 1.3187207 12.41297363 1.48291016 13.14086914 C2.39893785 18.20583623 2.31018637 23.30249276 2.375 28.4375 C2.41238281 29.55705078 2.44976563 30.67660156 2.48828125 31.83007812 C2.58673186 41.04614884 2.58673186 41.04614884 -0.5234375 44.78515625 C-1.34070313 45.51605469 -2.15796875 46.24695313 -3 47 C-3.99 46.67 -4.98 46.34 -6 46 C-5.18958252 45.37005127 -4.37916504 44.74010254 -3.54418945 44.09106445 C-0.50745561 41.03290886 -0.38127345 38.3685872 -0.28105164 34.18241882 C-0.28695061 32.87589104 -0.28695061 32.87589104 -0.29296875 31.54296875 C-0.27784744 30.64000565 -0.26272614 29.73704254 -0.24714661 28.80671692 C-0.20428851 25.93339021 -0.19543351 23.06111442 -0.1875 20.1875 C-0.1643542 18.23499814 -0.13898869 16.28252124 -0.11132812 14.33007812 C-0.04849442 9.55329259 -0.01614441 4.77716228 0 0 Z " fill="#1F1F21" transform="translate(918,191)"/>
<path d="M0 0 C1.485 0.99 1.485 0.99 3 2 C2.67 3.98 2.34 5.96 2 8 C2.99 7.67 3.98 7.34 5 7 C4.67 7.99 4.34 8.98 4 10 C4.33 10.99 4.66 11.98 5 13 C5 14.32 5 15.64 5 17 C4.34 17 3.68 17 3 17 C3 17.66 3 18.32 3 19 C2.01 19.33 1.02 19.66 0 20 C0 13.4 0 6.8 0 0 Z " fill="#252526" transform="translate(751,311)"/>
<path d="M0 0 C0.66 0 1.32 0 2 0 C2 0.99 2 1.98 2 3 C1.34 3 0.68 3 0 3 C0 3.99 0 4.98 0 6 C-0.99 6.66 -1.98 7.32 -3 8 C-3.72382467 10.05925139 -3.72382467 10.05925139 -4 12 C-6.97 11.505 -6.97 11.505 -10 11 C-10 11.99 -10 12.98 -10 14 C-10.99 14.33 -11.98 14.66 -13 15 C-13.66 14.67 -14.32 14.34 -15 14 C-15 14.66 -15 15.32 -15 16 C-15.99 15.67 -16.98 15.34 -18 15 C-17.01 13.35 -16.02 11.7 -15 10 C-14.01 10.33 -13.02 10.66 -12 11 C-11.34 10.01 -10.68 9.02 -10 8 C-8.35 8.33 -6.7 8.66 -5 9 C-4.731875 8.443125 -4.46375 7.88625 -4.1875 7.3125 C-2.89100504 4.78774666 -1.57523677 2.36285516 0 0 Z " fill="#272729" transform="translate(851,377)"/>
<path d="M0 0 C1.051875 0.185625 2.10375 0.37125 3.1875 0.5625 C6.57119882 0.95079331 8.76425888 0.88247485 12 0 C12.2475 0.78375 12.495 1.5675 12.75 2.375 C14.15389099 5.32317108 15.00675737 5.9024777 18 7 C18 7.66 18 8.32 18 9 C13.64029169 7.65150163 9.68658562 5.95092154 5.625 3.875 C4.56539062 3.33617187 3.50578125 2.79734375 2.4140625 2.2421875 C1.61742187 1.83226562 0.82078125 1.42234375 0 1 C0 0.67 0 0.34 0 0 Z " fill="#383839" transform="translate(642,289)"/>
<path d="M0 0 C2.125 0.1875 2.125 0.1875 4 1 C4.33 1.66 4.66 2.32 5 3 C4.01 3.33 3.02 3.66 2 4 C0.57142881 5.40105576 0.57142881 5.40105576 -0.6875 7.0625 C-1.450625 8.031875 -2.21375 9.00125 -3 10 C-3.66 9.34 -4.32 8.68 -5 8 C-7.06874034 7.3574765 -7.06874034 7.3574765 -9 7 C-8.67 6.01 -8.34 5.02 -8 4 C-7.236875 3.896875 -6.47375 3.79375 -5.6875 3.6875 C-2.95645104 3.2401537 -2.95645104 3.2401537 -1.4375 1.375 C-0.963125 0.92125 -0.48875 0.4675 0 0 Z " fill="#232224" transform="translate(934,314)"/>
<path d="M0 0 C0.99 0 1.98 0 3 0 C3 0.66 3 1.32 3 2 C3.66 2 4.32 2 5 2 C4.67 3.65 4.34 5.3 4 7 C3.34 7 2.68 7 2 7 C2 7.66 2 8.32 2 9 C0.68 9 -0.64 9 -2 9 C-2.33 7.02 -2.66 5.04 -3 3 C-2.01 2.67 -1.02 2.34 0 2 C0 1.34 0 0.68 0 0 Z " fill="#272729" transform="translate(827,404)"/>
<path d="M0 0 C2.475 0.99 2.475 0.99 5 2 C4.34 3.98 3.68 5.96 3 8 C2.34 8 1.68 8 1 8 C1 8.66 1 9.32 1 10 C0.01 9.67 -0.98 9.34 -2 9 C-2 2 -2 2 0 0 Z " fill="#2A292C" transform="translate(869,322)"/>
<path d="M0 0 C0.66 0 1.32 0 2 0 C0.88971278 3.84330191 0.02168791 6.35602308 -3 9 C-3.99 10.485 -3.99 10.485 -5 12 C-5.99 11.67 -6.98 11.34 -8 11 C-7.75 9.125 -7.75 9.125 -7 7 C-5.67532254 6.3162955 -4.34136367 5.65035814 -3 5 C-1.79117904 2.99983534 -1.79117904 2.99983534 -1 1 C-0.67 0.67 -0.34 0.34 0 0 Z " fill="#2C2C2E" transform="translate(908,259)"/>
<path d="M0 0 C1.5 1.3125 1.5 1.3125 3 3 C3 3.99 3 4.98 3 6 C1.02 6.99 -0.96 7.98 -3 9 C-3.66 8.01 -4.32 7.02 -5 6 C-4.34 6 -3.68 6 -3 6 C-3.33 4.68 -3.66 3.36 -4 2 C-3.01 2 -2.02 2 -1 2 C-0.67 1.34 -0.34 0.68 0 0 Z " fill="#29292B" transform="translate(842,356)"/>
<path d="M0 0 C0.33 1.32 0.66 2.64 1 4 C1.66 3.67 2.32 3.34 3 3 C3.33 4.32 3.66 5.64 4 7 C2.02 7.99 0.04 8.98 -2 10 C-3.125 6.25 -3.125 6.25 -2 4 C-2.66 3.67 -3.32 3.34 -4 3 C-3.34 3 -2.68 3 -2 3 C-2 2.34 -2 1.68 -2 1 C-1.34 0.67 -0.68 0.34 0 0 Z " fill="#242426" transform="translate(823,413)"/>
<path d="M0 0 C2.1875 0.3125 2.1875 0.3125 4 1 C3.67 3.31 3.34 5.62 3 8 C1.68 7.67 0.36 7.34 -1 7 C-1 6.01 -1 5.02 -1 4 C-1.66 3.67 -2.32 3.34 -3 3 C-1.75 1.4375 -1.75 1.4375 0 0 Z " fill="#232325" transform="translate(635,385)"/>
<path d="M0 0 C2 1 2 1 4 3 C4 3.99 4 4.98 4 6 C3.34 6 2.68 6 2 6 C2 7.32 2 8.64 2 10 C2.66 10.33 3.32 10.66 4 11 C3.01 11.495 3.01 11.495 2 12 C1.34 12.99 0.68 13.98 0 15 C0 10.05 0 5.1 0 0 Z " fill="#252527" transform="translate(751,286)"/>
<path d="M0 0 C0.66 0 1.32 0 2 0 C1.6875 3.375 1.6875 3.375 1 7 C0.01 7.66 -0.98 8.32 -2 9 C-1.34 9.66 -0.68 10.32 0 11 C-1.65 10.67 -3.3 10.34 -5 10 C-4.37240135 7.07120629 -3.41377341 4.63904371 -2 2 C-1.34 2 -0.68 2 0 2 C0 1.34 0 0.68 0 0 Z " fill="#2D2D2F" transform="translate(827,362)"/>
<path d="M0 0 C1.65 0 3.3 0 5 0 C5.33 1.65 5.66 3.3 6 5 C4.35 4.67 2.7 4.34 1 4 C0.67 4.99 0.34 5.98 0 7 C-0.99 6.67 -1.98 6.34 -3 6 C-2.01 4.02 -1.02 2.04 0 0 Z " fill="#303032" transform="translate(860,263)"/>
<path d="M0 0 C1.32 1.32 2.64 2.64 4 4 C2.68 5.32 1.36 6.64 0 8 C-1.5625 6.75 -1.5625 6.75 -3 5 C-2.8125 2.875 -2.8125 2.875 -2 1 C-1.34 0.67 -0.68 0.34 0 0 Z " fill="#242427" transform="translate(875,406)"/>
<path d="M0 0 C1.65 0.33 3.3 0.66 5 1 C4.43628586 4.26954202 3.50037734 5.82575883 1 8 C-1 7 -1 7 -2 4 C-1.0625 1.8125 -1.0625 1.8125 0 0 Z " fill="#29282B" transform="translate(904,313)"/>
<path d="M0 0 C0.66 0 1.32 0 2 0 C1.34 2.97 0.68 5.94 0 9 C-0.99 9 -1.98 9 -3 9 C-3.66 7.35 -4.32 5.7 -5 4 C-4.01 3.67 -3.02 3.34 -2 3 C-1.34 2.01 -0.68 1.02 0 0 Z " fill="#2C2C2D" transform="translate(711,339)"/>
<path d="M0 0 C-0.99 1.485 -0.99 1.485 -2 3 C-2 3.66 -2 4.32 -2 5 C-2.66 5 -3.32 5 -4 5 C-4 5.66 -4 6.32 -4 7 C-4.66 7 -5.32 7 -6 7 C-6.33 4.69 -6.66 2.38 -7 0 C-3.86650268 -1.04449911 -3.01031744 -0.93423645 0 0 Z " fill="#28282A" transform="translate(715,407)"/>
<path d="M0 0 C1.32 0.66 2.64 1.32 4 2 C3.01 3.32 2.02 4.64 1 6 C-1.97 5.505 -1.97 5.505 -5 5 C-4.67 4.01 -4.34 3.02 -4 2 C-3.01 2 -2.02 2 -1 2 C-0.67 1.34 -0.34 0.68 0 0 Z " fill="#242427" transform="translate(698,392)"/>
<path d="M0 0 C0.99 0.33 1.98 0.66 3 1 C0.69 4.63 -1.62 8.26 -4 12 C-5.53445094 8.93109813 -4.54984289 6.29905734 -4 3 C-3.01 2.67 -2.02 2.34 -1 2 C-0.67 1.34 -0.34 0.68 0 0 Z " fill="#272729" transform="translate(909,343)"/>
<path d="M0 0 C0.33 0 0.66 0 1 0 C1.1953125 2.01822917 1.390625 4.03645833 1.5859375 6.0546875 C1.86374749 8.22668245 1.86374749 8.22668245 4 10 C3.01 11.485 3.01 11.485 2 13 C1.54860541 15.0492094 1.54860541 15.0492094 1.375 17.1875 C1.25125 18.445625 1.1275 19.70375 1 21 C0.67 21 0.34 21 0 21 C0 14.07 0 7.14 0 0 Z " fill="#2C2C2D" transform="translate(722,254)"/>
<path d="M0 0 C0.66 0.66 1.32 1.32 2 2 C2.99 1.67 3.98 1.34 5 1 C3.9024777 3.99324263 3.32317108 4.84610901 0.375 6.25 C-0.40875 6.4975 -1.1925 6.745 -2 7 C-2.33 5.35 -2.66 3.7 -3 2 C-2.01 1.34 -1.02 0.68 0 0 Z " fill="#252527" transform="translate(943,271)"/>
<path d="M0 0 C2.46800047 1.15173355 4.04783565 2.04783565 6 4 C5.34 4.66 4.68 5.32 4 6 C4 5.34 4 4.68 4 4 C2.35 5.32 0.7 6.64 -1 8 C-1.04241723 5.66705225 -1.04092937 3.33297433 -1 1 C-0.67 0.67 -0.34 0.34 0 0 Z " fill="#2E2E2F" transform="translate(635,261)"/>
<path d="M0 0 C1.65 0.33 3.3 0.66 5 1 C4.34 2.98 3.68 4.96 3 7 C2.34 7 1.68 7 1 7 C1 6.34 1 5.68 1 5 C0.34 5 -0.32 5 -1 5 C-0.67 3.35 -0.34 1.7 0 0 Z " fill="#272729" transform="translate(741,414)"/>
<path d="M0 0 C0.99 0.33 1.98 0.66 3 1 C2.67 2.32 2.34 3.64 2 5 C-0.31 5 -2.62 5 -5 5 C-2.25 1.125 -2.25 1.125 0 0 Z " fill="#28282A" transform="translate(880,328)"/>
<path d="M0 0 C0.98120464 3.05263664 0.98120464 4.94736336 0 8 C-0.99 7.67 -1.98 7.34 -3 7 C-3.33 5.35 -3.66 3.7 -4 2 C-2.68 1.34 -1.36 0.68 0 0 Z " fill="#333233" transform="translate(804,257)"/>
<path d="M0 0 C0.66 0.33 1.32 0.66 2 1 C0.55746343 4.36591866 -1.33264727 6.51047079 -4 9 C-3.67 7.68 -3.34 6.36 -3 5 C-3.99 4.67 -4.98 4.34 -6 4 C-4.7934375 3.566875 -4.7934375 3.566875 -3.5625 3.125 C-0.8673532 2.26737432 -0.8673532 2.26737432 0 0 Z " fill="#2C2C2D" transform="translate(804,372)"/>
<path d="M0 0 C0.33 1.32 0.66 2.64 1 4 C0.34 4 -0.32 4 -1 4 C-1 4.66 -1 5.32 -1 6 C-2.9375 5.6875 -2.9375 5.6875 -5 5 C-5.33 4.01 -5.66 3.02 -6 2 C-4.02 1.34 -2.04 0.68 0 0 Z " fill="#262628" transform="translate(632,353)"/>
<path d="M0 0 C1.65 0 3.3 0 5 0 C5 0.66 5 1.32 5 2 C3.35 2.33 1.7 2.66 0 3 C0 2.01 0 1.02 0 0 Z M-3 2 C-2.34 2.33 -1.68 2.66 -1 3 C-1.66 4.32 -2.32 5.64 -3 7 C-3.66 6.67 -4.32 6.34 -5 6 C-5 5.01 -5 4.02 -5 3 C-4.34 2.67 -3.68 2.34 -3 2 Z " fill="#28282A" transform="translate(852,348)"/>
<path d="M0 0 C0.33 0 0.66 0 1 0 C1 1.98 1 3.96 1 6 C-0.32 6.33 -1.64 6.66 -3 7 C-3.66 6.01 -4.32 5.02 -5 4 C-3.35 3.34 -1.7 2.68 0 2 C0 1.34 0 0.68 0 0 Z " fill="#2C2C2C" transform="translate(710,296)"/>
<path d="M0 0 C-0.33 1.65 -0.66 3.3 -1 5 C-2.32 5.33 -3.64 5.66 -5 6 C-5.66 4.68 -6.32 3.36 -7 2 C-4 0 -4 0 0 0 Z " fill="#2B2B2D" transform="translate(763,380)"/>
<path d="M0 0 C0.99 0.66 1.98 1.32 3 2 C2.34 2 1.68 2 1 2 C1 2.66 1 3.32 1 4 C0.01 4 -0.98 4 -2 4 C-1.34 2.68 -0.68 1.36 0 0 Z M-4 3 C-2.515 3.99 -2.515 3.99 -1 5 C-1.33 5.66 -1.66 6.32 -2 7 C-2.99 6.67 -3.98 6.34 -5 6 C-4.67 5.01 -4.34 4.02 -4 3 Z M-6 7 C-4 8 -4 8 -4 8 Z " fill="#2A2A2D" transform="translate(692,347)"/>
<path d="M0 0 C2.97 0.495 2.97 0.495 6 1 C6 1.99 6 2.98 6 4 C5.34 4 4.68 4 4 4 C3.67 4.66 3.34 5.32 3 6 C2.01 5.67 1.02 5.34 0 5 C0 3.35 0 1.7 0 0 Z " fill="#313032" transform="translate(764,269)"/>
<path d="M0 0 C0 1.65 0 3.3 0 5 C-1.875 5.625 -1.875 5.625 -4 6 C-4.66 5.34 -5.32 4.68 -6 4 C-2.17391304 0 -2.17391304 0 0 0 Z " fill="#29292B" transform="translate(810,388)"/>
<path d="M0 0 C0.99 0 1.98 0 3 0 C4 3 4 3 3.0625 5.1875 C2.5365625 6.0846875 2.5365625 6.0846875 2 7 C1.01 6.67 0.02 6.34 -1 6 C-0.67 4.02 -0.34 2.04 0 0 Z " fill="#2B2B2D" transform="translate(715,382)"/>
<path d="M0 0 C2.31 0.33 4.62 0.66 7 1 C6.34 2.32 5.68 3.64 5 5 C3.35 5 1.7 5 0 5 C-0.33 4.34 -0.66 3.68 -1 3 C-0.67 2.01 -0.34 1.02 0 0 Z " fill="#262729" transform="translate(882,387)"/>
<path d="M0 0 C1.32 0.66 2.64 1.32 4 2 C2.71034824 3.37562854 1.37310707 4.70766393 0 6 C-0.66 6 -1.32 6 -2 6 C-1.125 1.125 -1.125 1.125 0 0 Z " fill="#333233" transform="translate(704,288)"/>
<path d="M0 0 C0.66 0 1.32 0 2 0 C2.12375 0.969375 2.2475 1.93875 2.375 2.9375 C2.684375 4.4534375 2.684375 4.4534375 3 6 C3.66 6.33 4.32 6.66 5 7 C3.68 7.33 2.36 7.66 1 8 C0.67 5.36 0.34 2.72 0 0 Z " fill="#2E2E31" transform="translate(768,325)"/>
<path d="M0 0 C0 0.99 0 1.98 0 3 C-0.99 3.33 -1.98 3.66 -3 4 C-3.33 4.66 -3.66 5.32 -4 6 C-4.99 6.33 -5.98 6.66 -7 7 C-6.875 5.1875 -6.875 5.1875 -6 3 C-2.9375 1.25 -2.9375 1.25 0 0 Z " fill="#252527" transform="translate(964,260)"/>
<path d="M0 0 C0.66 0.33 1.32 0.66 2 1 C1.67 2.32 1.34 3.64 1 5 C0.34 5 -0.32 5 -1 5 C-1.33 5.99 -1.66 6.98 -2 8 C-2.66 8 -3.32 8 -4 8 C-4 7.01 -4 6.02 -4 5 C-3.34 5 -2.68 5 -2 5 C-1.7834375 4.0409375 -1.7834375 4.0409375 -1.5625 3.0625 C-1 1 -1 1 0 0 Z " fill="#2E2D2F" transform="translate(899,220)"/>
<path d="M0 0 C1.32 0 2.64 0 4 0 C4.33 1.32 4.66 2.64 5 4 C2.69 4 0.38 4 -2 4 C-1.34 2.68 -0.68 1.36 0 0 Z " fill="#262628" transform="translate(762,408)"/>
<path d="M0 0 C1.32 0.33 2.64 0.66 4 1 C2.02 1.99 2.02 1.99 0 3 C0 3.66 0 4.32 0 5 C-1.32 4.67 -2.64 4.34 -4 4 C-3.67 3.34 -3.34 2.68 -3 2 C-2.01 2 -1.02 2 0 2 C0 1.34 0 0.68 0 0 Z " fill="#262628" transform="translate(685,418)"/>
<path d="M0 0 C3.85714286 2.57142857 3.85714286 2.57142857 5 6 C3.68 6 2.36 6 1 6 C-0.75 4 -0.75 4 -2 2 C-1.34 1.34 -0.68 0.68 0 0 Z " fill="#2A2A2C" transform="translate(794,403)"/>
<path d="M0 0 C1.32 0.33 2.64 0.66 4 1 C3.67 1.99 3.34 2.98 3 4 C1.35 4 -0.3 4 -2 4 C-1.34 2.68 -0.68 1.36 0 0 Z " fill="#242426" transform="translate(644,397)"/>
<path d="M0 0 C1.98 0.66 3.96 1.32 6 2 C5.34 2.66 4.68 3.32 4 4 C0.875 3.625 0.875 3.625 -2 3 C-1.34 2.67 -0.68 2.34 0 2 C0 1.34 0 0.68 0 0 Z " fill="#2F2E31" transform="translate(788,318)"/>
<path d="M0 0 C0.99 0 1.98 0 3 0 C2.67 1.65 2.34 3.3 2 5 C1.01 5.33 0.02 5.66 -1 6 C-1.042721 4.33388095 -1.04063832 2.66617115 -1 1 C-0.67 0.67 -0.34 0.34 0 0 Z " fill="#2B2B2D" transform="translate(846,303)"/>
<path d="M0 0 C0.625 1.8125 0.625 1.8125 1 4 C0.01 5.485 0.01 5.485 -1 7 C-1.66 7 -2.32 7 -3 7 C-2.25 2.25 -2.25 2.25 0 0 Z " fill="#242426" transform="translate(953,246)"/>
<path d="M0 0 C2.97 0.495 2.97 0.495 6 1 C6 1.99 6 2.98 6 4 C3 4 3 4 0 3 C0 2.01 0 1.02 0 0 Z " fill="#242527" transform="translate(945,244)"/>
<path d="M0 0 C1.32 0.66 2.64 1.32 4 2 C3.34 2 2.68 2 2 2 C1.34 3.32 0.68 4.64 0 6 C-0.66 5.67 -1.32 5.34 -2 5 C-1.34 3.35 -0.68 1.7 0 0 Z " fill="#2E2D2F" transform="translate(731,337)"/>
<path d="M0 0 C-0.66 1.65 -1.32 3.3 -2 5 C-2.99 5 -3.98 5 -5 5 C-5.33 4.01 -5.66 3.02 -6 2 C-3 0 -3 0 0 0 Z " fill="#2D2D2F" transform="translate(863,275)"/>
<path d="M0 0 C2.00720923 0.28674418 4.0085944 0.61866701 6 1 C4.02 1.99 4.02 1.99 2 3 C1.01 2.34 0.02 1.68 -1 1 C-0.67 0.67 -0.34 0.34 0 0 Z M-4 1 C-3.01 1.33 -2.02 1.66 -1 2 C-1.33 2.66 -1.66 3.32 -2 4 C-2.66 3.01 -3.32 2.02 -4 1 Z " fill="#323233" transform="translate(667,267)"/>
</svg>
